<?xml version="1.0" encoding="UTF-8" standalone="no"?>
<svg
   version="1.1"
   width="277.46277"
   height="266.3703"
   id="svg65"
   viewBox="0 0 277.46277 266.3703"
   sodipodi:docname="icone-darkred.svg"
   inkscape:version="1.1.2 (0a00cf5339, 2022-02-04)"
   xmlns:inkscape="http://www.inkscape.org/namespaces/inkscape"
   xmlns:sodipodi="http://sodipodi.sourceforge.net/DTD/sodipodi-0.dtd"
   xmlns="http://www.w3.org/2000/svg"
   xmlns:svg="http://www.w3.org/2000/svg">
  <defs
     id="defs69" />
  <sodipodi:namedview
     id="namedview67"
     pagecolor="#ffffff"
     bordercolor="#666666"
     borderopacity="1.0"
     inkscape:pageshadow="2"
     inkscape:pageopacity="0.0"
     inkscape:pagecheckerboard="0"
     showgrid="false"
     inkscape:zoom="2.0959868"
     inkscape:cx="110.92627"
     inkscape:cy="131.68022"
     inkscape:window-width="1920"
     inkscape:window-height="1016"
     inkscape:window-x="0"
     inkscape:window-y="27"
     inkscape:window-maximized="1"
     inkscape:current-layer="svg65"
     width="822.04718px"
     fit-margin-top="0"
     fit-margin-left="0"
     fit-margin-right="0"
     fit-margin-bottom="0" />
  <path
     d="m 152.27086,0 c -10.7,34.5871 -29.6739,42.4117 -51.412,54.644 l -84.045098,49.8105 c -24.0442998,15.1472 -21.3406997,37.4679 1.9934,42.689 16.9126,2.3614 21.9885,-1.2337 46.7518,-1.8825 l -34.1871,-7.7593 c -16.7883,-4.2963 -12.549,-7.4106 -2.2998,-13.4119 l 55.9128,-34.175704 13.579602,56.613304 -23.708102,14.8841 1.2974,24.1427 c 3.6534,-5.5677 4.377,-6.0964 10.2499,-9.7444 l 17.484098,-10.9126 17.5677,77.9161 c 0.6673,-18.9211 7.6434,-29.5683 14.9706,-38.6715 l -10.8345,-49.5884 c 2.1647,-3.5203 4.8497,-5.8026 7.7048,-7.6773 l 23.8161,-14.8354 13.9735,56.3147 -29.3277,19.6624 c -12.7907,10.5995 -20.1795,32.3576 -14.938,58.3525 9.8604,-35.9235 20.2279,-39.4489 49.7154,-56.4918 24.6828,-14.2658 62.2001,-37.9515 84.0481,-49.1247 22.3518,-13.6918 23.2868,-37.2225 -1.8985,-42.6935 -12.7202,-2.8458 -32.0301,2.1889 -46.756,1.7788 l 34.1698,7.8353 c 16.1796,4.0541 13.5059,7.5479 2.2698,13.4167 l -55.9884,34.0513 -13.4537,-56.6431 23.7413,-14.8313 -1.244,-24.1455 c -2.6358,4.6729 -6.1109,7.039696 -10.2715,9.721296 l -17.508,10.874004 -16.4629,-74.4031 c -1.574,11.8119 -4.2775,22.6584 -16.1668,34.9955 l 11.0522,49.2836 c -2.8033,5.1189 -7.685,7.9674 -14.6454,12.4339 l -17.0733,10.5099 -14.0982,-56.2838 30.7361,-20.8783 C 149.28076,47.296 156.38896,22.1319 152.27086,0 Z"
     style="fill:#f9f9f9;fill-rule:evenodd"
     id="path63" />
  <path
     style="fill:#800000;stroke-width:0.477102;fill-opacity:1"
     d="m 126.23653,262.31906 c -2.6941,-16.08975 0.33618,-33.75028 7.74554,-45.14119 4.00083,-6.15076 5.8492,-7.71412 21.66157,-18.32145 8.25258,-5.53604 15.10257,-10.3206 15.22221,-10.63236 0.21437,-0.55866 -13.33183,-55.41984 -13.79967,-55.88767 -0.13243,-0.13245 -5.88414,3.26189 -12.78157,7.54297 -13.0282,8.08631 -18.56817,12.49196 -18.56817,14.76629 0,0.57002 2.37808,11.92801 5.28462,25.23996 l 5.28462,24.20357 -3.14344,4.22993 c -3.41002,4.58865 -7.26731,11.94511 -8.84729,16.87315 -0.97503,3.04118 -2.0354,8.17925 -2.75068,13.32856 -0.33889,2.43962 -0.86936,0.33454 -8.92684,-35.42484 -4.7116,-20.91023 -8.72028,-38.0186 -8.90818,-38.0186 -0.62488,0 -21.147323,12.97252 -22.543095,14.2498 -0.754895,0.69081 -2.17301,2.25579 -3.151375,3.47772 l -1.778837,2.2217 -0.299043,-5.56141 c -0.164471,-3.05878 -0.440227,-8.36582 -0.61279,-11.79341 l -0.313747,-6.23198 11.753452,-7.36543 c 6.464396,-4.05099 11.754425,-7.56324 11.755622,-7.80501 0.0024,-0.49335 -13.351482,-56.262099 -13.500228,-56.379748 -0.270383,-0.213856 -61.843846,37.749058 -62.994288,38.838918 -2.903198,2.75031 -2.664844,4.13769 1.03277,6.01142 3.188024,1.61549 5.814295,2.31887 24.16024,6.47065 12.908903,2.92136 15.881756,3.73248 14.611256,3.98658 -0.877267,0.17545 -2.48065,0.3142 -3.563076,0.30834 -1.082425,-0.006 -7.872187,0.56894 -15.088358,1.27737 -11.919816,1.17018 -13.67045,1.23826 -19.132815,0.74405 -11.085947,-1.00301 -18.2710796,-4.82027 -21.9044744,-11.63721 -3.04173246,-5.70688 -2.31910537,-13.02282 1.9121955,-19.35924 2.0648007,-3.09207 7.1955509,-8.18386 10.5615089,-10.48132 3.144578,-2.14635 86.493922,-51.434642 94.165142,-55.684163 15.05201,-8.338155 24.41704,-15.748576 31.05598,-24.57416 3.54479,-4.712324 8.39259,-13.996947 10.71837,-20.5280691 1.56258,-4.38794062 1.61883,-4.47023454 1.95641,-2.8626135 0.77794,3.7046073 0.97515,11.9046996 0.42363,17.6149326 -1.32162,13.683518 -5.95079,25.756666 -12.42709,32.410562 -2.13821,2.196846 -14.85421,11.161392 -33.97458,23.951449 -0.22964,0.153617 2.73576,12.891279 6.5898,28.305922 5.93558,23.73999 7.12664,27.99541 7.7874,27.82262 1.18433,-0.30971 21.41271,-13.00522 24.9877,-15.6825 3.42832,-2.56745 6.07228,-5.76485 6.03883,-7.3029 -0.0117,-0.53872 -2.45132,-11.714291 -5.42134,-24.834602 l -5.40004,-23.855112 1.30854,-1.431307 c 7.08785,-7.752806 12.14846,-17.868667 13.88752,-27.760354 0.31438,-1.78821 0.70863,-3.412217 0.87609,-3.608903 0.16747,-0.196686 3.79668,15.476123 8.06492,34.828463 4.26824,19.35234 7.91181,35.682271 8.09682,36.288726 0.32245,1.056939 0.76126,0.839361 10.58437,-5.248125 7.98743,-4.949893 11.04698,-7.140083 13.87022,-9.929042 l 3.62224,-3.578266 0.55746,11.644195 c 0.30659,6.404306 0.5015,11.682117 0.43312,11.728467 -0.0684,0.0463 -5.41587,3.3809 -11.8833,7.4101 -6.46743,4.0292 -11.68573,7.55393 -11.59622,7.83272 0.0895,0.2788 3.10235,12.95927 6.6952,28.17883 3.59284,15.21956 6.60194,27.75281 6.68687,27.85167 0.0849,0.0989 11.38086,-6.65389 25.10207,-15.0061 13.7212,-8.35221 27.63134,-16.77023 30.91142,-18.7067 6.99084,-4.12721 9.06494,-5.92033 9.06494,-7.83689 0,-2.84232 -3.7188,-4.16991 -26.24062,-9.36769 -17.1495,-3.95791 -17.75286,-4.13414 -14.55162,-4.25018 1.83684,-0.0666 9.02916,-0.68233 15.98292,-1.36834 18.81476,-1.85611 26.2971,-1.33997 33.80194,2.33174 8.29615,4.05884 12.41798,11.90772 10.39669,19.79757 -1.56952,6.12646 -5.28753,11.63226 -10.96675,16.24006 -1.69895,1.37844 -6.16764,4.18114 -9.93043,6.22823 -10.90256,5.93138 -18.97183,10.63751 -47.15656,27.5025 -14.56355,8.71443 -31.41718,18.69228 -37.45253,22.17298 -10.89685,6.28444 -19.20248,11.4731 -21.9467,13.71044 -3.41977,2.78812 -8.52967,8.20593 -10.6755,11.31877 -4.11515,5.96964 -6.85196,12.04535 -10.07567,22.368 l -1.76074,5.63806 z"
     id="path406" />
</svg>
